<?xml version="1.0" standalone="no"?>
<!DOCTYPE svg PUBLIC "-//W3C//DTD SVG 20010904//EN"
 "http://www.w3.org/TR/2001/REC-SVG-20010904/DTD/svg10.dtd">
<svg version="1.0" xmlns="http://www.w3.org/2000/svg"
 width="1570.000000pt" height="1570.000000pt" viewBox="0 0 1570.000000 1570.000000"
 preserveAspectRatio="xMidYMid meet">
<metadata>
Created by potrace 1.14, written by Peter Selinger 2001-2017
</metadata>
<g transform="translate(0.000000,1570.000000) scale(0.100000,-0.100000)"
fill="#000000" stroke="none">
<path d="M9140 14639 c-19 -5 -48 -6 -63 -3 -26 5 -56 -4 -132 -43 -75 -38
-129 -110 -215 -288 -70 -144 -131 -321 -205 -602 -30 -114 -61 -226 -67 -248
-6 -22 -13 -44 -14 -50 -18 -76 -161 -488 -195 -562 -10 -23 -19 -45 -19 -48
0 -8 -94 -230 -140 -330 -92 -201 -135 -291 -251 -520 -126 -250 -215 -422
-272 -525 -17 -30 -41 -75 -55 -100 -256 -468 -664 -1062 -1117 -1630 -132
-165 -371 -457 -385 -470 -3 -3 -43 -50 -90 -105 -46 -55 -91 -107 -100 -116
-8 -9 -40 -45 -70 -80 -65 -74 -73 -83 -165 -185 -198 -219 -392 -421 -650
-679 -317 -316 -564 -551 -800 -761 -55 -49 -102 -91 -105 -94 -3 -3 -61 -54
-130 -114 -69 -60 -138 -121 -155 -135 -16 -15 -75 -65 -130 -111 -55 -47
-102 -87 -105 -90 -3 -3 -27 -23 -55 -45 -27 -21 -52 -42 -55 -45 -5 -5 -87
-73 -133 -110 -11 -8 -24 -20 -31 -25 -6 -6 -60 -53 -121 -105 -60 -51 -112
-96 -115 -99 -3 -4 -23 -22 -46 -41 -40 -35 -145 -128 -219 -194 -22 -19 -44
-36 -48 -36 -9 0 -121 -55 -177 -87 -67 -38 -491 -300 -623 -385 -23 -15 -58
-37 -77 -48 -19 -11 -61 -37 -92 -58 -32 -20 -104 -66 -160 -101 -351 -220
-542 -350 -793 -538 -82 -61 -154 -116 -160 -120 -5 -5 -26 -20 -45 -33 -93
-66 -137 -113 -171 -185 -15 -33 -30 -71 -33 -85 -3 -14 -15 -70 -27 -125 -30
-140 -32 -463 -4 -600 2 -11 7 -42 10 -69 3 -27 12 -83 20 -125 8 -42 16 -89
19 -105 21 -120 125 -466 147 -491 5 -5 9 -15 9 -23 0 -36 205 -425 315 -597
115 -180 305 -401 440 -511 52 -43 241 -174 250 -174 3 0 79 -44 168 -98 252
-152 289 -166 437 -167 154 0 240 31 437 158 54 35 139 88 188 118 119 72 115
69 177 105 29 17 136 79 238 138 102 60 244 142 315 183 149 87 455 269 550
328 63 39 331 201 490 296 84 50 108 69 143 114 26 32 632 340 862 437 344
146 420 177 545 223 72 26 163 60 204 76 41 15 78 26 82 23 5 -2 38 -55 75
-117 37 -62 144 -235 238 -385 94 -150 176 -280 181 -290 63 -107 466 -706
679 -1009 325 -464 426 -602 472 -645 61 -58 126 -46 288 52 237 144 327 291
313 510 -6 95 -37 222 -77 315 -4 11 -17 45 -28 75 -12 30 -43 114 -71 185
-56 145 -225 585 -251 655 -117 311 -152 405 -155 419 -2 9 -13 52 -25 96 -12
44 -23 87 -25 95 -45 196 -109 406 -149 490 -14 30 -26 57 -26 61 0 18 356
120 465 133 22 3 66 14 98 25 31 11 57 18 57 15 0 -3 8 0 18 5 9 5 35 12 57
15 109 17 165 25 215 31 30 3 120 17 200 30 80 13 163 27 185 30 22 3 47 7 55
10 8 2 26 6 40 9 36 6 251 45 276 50 12 3 37 7 55 10 19 3 77 12 129 21 52 9
111 18 130 20 19 2 53 7 75 11 22 4 49 8 60 10 89 11 123 16 145 19 14 2 48 7
75 10 28 4 57 8 65 10 8 3 42 7 75 10 33 3 112 12 175 20 63 8 140 17 170 20
30 3 71 8 90 10 39 4 144 14 230 20 30 2 78 6 105 9 70 6 217 17 300 22 39 2
111 6 160 9 150 10 351 23 655 40 58 3 130 8 160 10 30 2 93 7 140 10 73 5
266 28 336 40 12 2 48 6 80 10 33 3 73 8 90 10 17 3 57 7 90 10 32 4 70 8 84
10 14 2 57 7 95 10 39 4 81 8 95 10 14 2 52 7 85 10 33 3 76 8 95 10 34 4 104
11 205 20 28 2 73 6 100 9 28 3 82 8 120 11 39 3 95 8 125 10 30 3 91 7 135
10 44 3 109 7 145 10 36 3 112 7 170 10 117 7 149 11 200 27 35 11 92 46 98
60 2 4 34 31 70 60 105 82 144 128 194 229 43 86 101 244 112 301 2 12 9 43
16 68 12 46 16 63 26 115 3 17 10 50 15 75 6 25 12 63 15 85 3 22 7 46 10 54
7 22 29 197 39 311 19 229 26 676 12 770 -10 61 -14 123 -17 250 -2 47 -9 123
-16 170 -8 47 -17 101 -20 120 -2 19 -9 58 -15 86 -5 28 -12 64 -15 80 -9 52
-36 199 -40 216 -9 39 -14 66 -30 143 -74 367 -235 867 -392 1216 -11 24 -30
67 -42 94 -31 70 -171 350 -210 421 -76 137 -157 277 -233 399 -83 135 -406
626 -416 635 -4 3 -44 59 -91 125 -95 136 -403 550 -421 565 -3 3 -39 48 -79
100 -41 52 -77 97 -81 100 -3 3 -37 43 -74 90 -38 47 -71 87 -75 90 -3 3 -43
50 -90 105 -431 510 -829 910 -1268 1276 -408 341 -914 692 -1347 934 -74 42
-403 208 -460 232 -27 12 -76 34 -108 48 -96 42 -233 86 -330 105 -95 19 -255
24 -317 9z"/>
</g>
</svg>
